<svg version="1.1" id="Layer_1" xmlns="http://www.w3.org/2000/svg" xmlns:xlink="http://www.w3.org/1999/xlink" x="0px" y="0px"
	 width="40px" height="40px" viewBox="0 0 128 128" enable-background="new 0 0 128 128" xml:space="preserve">
<path fill="#000000" opacity="1.000000" stroke="none" 
	d="
M44.000000,1.000000 
	C72.300682,1.000000 100.601372,1.000000 128.951019,1.000000 
	C128.951019,43.584801 128.951019,86.169670 128.951019,128.877274 
	C86.333549,128.877274 43.666832,128.877274 1.000000,128.877274 
	C1.000000,116.241455 1.000000,103.589386 1.360472,90.546730 
	C2.197339,91.331917 2.822307,92.470436 3.127885,93.689041 
	C7.865334,112.581459 24.474216,126.742439 42.540596,126.949013 
	C57.202984,127.116661 71.871994,127.166260 86.531929,126.912971 
	C95.215172,126.762955 103.301826,124.025604 109.990906,118.385696 
	C126.081703,104.818703 131.029953,87.532158 124.761879,67.684769 
	C120.602676,54.514942 111.375893,45.385529 98.027718,40.826103 
	C85.887489,36.679276 73.322517,38.355457 60.904037,38.018814 
	C58.344517,37.949432 55.781506,38.008755 52.757099,38.008755 
	C53.374249,36.658298 53.488384,36.159863 53.779461,35.807648 
	C63.107574,24.520317 59.958336,9.999880 46.793507,3.398643 
	C45.729057,2.864896 44.925037,1.811775 44.000000,1.000000 
z"/>
<path fill="#363533" opacity="1.000000" stroke="none" 
	d="
M43.539364,1.000000 
	C44.925037,1.811775 45.729057,2.864896 46.793507,3.398643 
	C59.958336,9.999880 63.107574,24.520317 53.779461,35.807648 
	C53.488384,36.159863 53.374249,36.658298 52.757099,38.008755 
	C55.781506,38.008755 58.344517,37.949432 60.904037,38.018814 
	C73.322517,38.355457 85.887489,36.679276 98.027718,40.826103 
	C111.375893,45.385529 120.602676,54.514942 124.761879,67.684769 
	C131.029953,87.532158 126.081703,104.818703 109.990906,118.385696 
	C103.301826,124.025604 95.215172,126.762955 86.531929,126.912971 
	C71.871994,127.166260 57.202984,127.116661 42.540596,126.949013 
	C24.474216,126.742439 7.865334,112.581459 3.127885,93.689041 
	C2.822307,92.470436 2.197339,91.331917 1.360472,90.078072 
	C1.000000,85.643097 1.000000,81.286201 1.359012,76.381264 
	C2.125256,75.155052 2.589416,74.504265 2.930861,73.794441 
	C6.123544,67.157196 8.451852,59.893490 12.723543,54.048557 
	C16.560144,48.798962 22.525311,45.105007 27.653894,40.635593 
	C27.470671,40.506405 26.934250,40.178883 26.454639,39.782604 
	C13.931284,29.435228 15.081378,12.390635 28.842319,3.747850 
	C30.009674,3.014674 30.952738,1.924386 32.000000,1.000000 
	C35.692909,1.000000 39.385818,1.000000 43.539364,1.000000 
M31.611023,47.673672 
	C14.330240,54.687798 5.424149,71.766541 8.902702,91.220207 
	C11.970208,108.375084 26.296019,120.491661 44.657265,120.920349 
	C58.149319,121.235359 71.655678,121.071609 85.153824,120.937050 
	C92.281776,120.865997 98.917854,118.924843 104.911774,114.869781 
	C118.889107,105.413719 124.691788,88.572212 119.834282,71.238876 
	C115.717972,56.550430 101.274513,45.547562 85.138550,45.062759 
	C77.478897,44.832634 69.806984,45.008301 62.140621,45.004101 
	C56.030468,45.000751 49.920319,45.003426 43.735889,45.003426 
	C43.521019,46.202991 43.304451,46.838688 43.309845,47.472488 
	C43.353767,52.632694 43.439198,57.792549 43.305050,63.839760 
	C43.222614,66.307549 43.752426,69.031410 42.861664,71.161118 
	C42.164337,72.828323 39.765736,74.608971 38.011341,74.730774 
	C36.756924,74.817871 34.616684,72.450729 34.125813,70.804665 
	C33.397964,68.363968 33.780579,65.592117 33.839184,62.044415 
	C33.796494,57.365948 33.753803,52.687481 33.722504,47.473480 
	C33.247513,47.518417 32.772526,47.563351 31.611023,47.673672 
M45.468056,10.740003 
	C37.781403,6.862000 30.384840,8.766194 26.545444,15.611501 
	C22.981646,21.965441 25.077919,30.214365 31.217398,33.995853 
	C37.245773,37.708908 45.249535,35.995964 49.457935,30.397982 
	C53.222038,25.391003 53.696220,16.521965 45.468056,10.740003 
z"/>
<path fill="#000000" opacity="1.000000" stroke="none" 
	d="
M31.531342,1.000000 
	C30.952738,1.924386 30.009674,3.014674 28.842319,3.747850 
	C15.081378,12.390635 13.931284,29.435228 26.454639,39.782604 
	C26.934250,40.178883 27.470671,40.506405 27.653894,40.635593 
	C22.525311,45.105007 16.560144,48.798962 12.723543,54.048557 
	C8.451852,59.893490 6.123544,67.157196 2.930861,73.794441 
	C2.589416,74.504265 2.125256,75.155052 1.359012,75.916611 
	C1.000000,51.103626 1.000000,26.207254 1.000000,1.000000 
	C11.018752,1.000000 21.040718,1.000000 31.531342,1.000000 
z"/>
<path fill="#FECA24" opacity="1.000000" stroke="none" 
	d="
M33.711113,48.009014 
	C33.753803,52.687481 33.796494,57.365948 33.440468,62.602112 
	C28.540714,64.937737 26.956253,68.440628 27.017529,73.047493 
	C27.077377,77.547028 29.171680,80.620285 33.188808,82.458443 
	C38.860725,85.053802 45.943901,82.848289 48.817974,77.619423 
	C51.685848,72.401833 49.763401,67.087753 43.511993,62.952511 
	C43.439198,57.792549 43.353767,52.632694 43.309845,47.472488 
	C43.304451,46.838688 43.521019,46.202991 43.735889,45.003426 
	C49.920319,45.003426 56.030468,45.000751 62.140621,45.004101 
	C69.806984,45.008301 77.478897,44.832634 85.138550,45.062759 
	C101.274513,45.547562 115.717972,56.550430 119.834282,71.238876 
	C124.691788,88.572212 118.889107,105.413719 104.911774,114.869781 
	C98.917854,118.924843 92.281776,120.865997 85.153824,120.937050 
	C71.655678,121.071609 58.149319,121.235359 44.657265,120.920349 
	C26.296019,120.491661 11.970208,108.375084 8.902702,91.220207 
	C5.424149,71.766541 14.330240,54.687798 32.304062,47.756096 
	C33.235104,47.895355 33.473110,47.952187 33.711113,48.009014 
M71.553535,87.512955 
	C71.451256,86.021431 71.657494,84.422493 71.183281,83.060463 
	C70.155907,80.109612 67.799088,78.707336 64.882614,79.979736 
	C60.428871,81.922829 61.647518,86.240448 61.989990,89.641052 
	C62.197453,91.701057 63.803619,94.092003 65.510071,95.329285 
	C66.357178,95.943481 69.370659,94.751602 70.443405,93.531891 
	C71.463791,92.371704 71.233124,90.111221 71.553535,87.512955 
M89.148277,88.346992 
	C89.144478,91.977859 90.014595,95.221695 94.376030,95.213615 
	C97.755753,95.207344 99.329361,92.817436 99.145554,89.536240 
	C98.928253,85.656952 100.693481,80.649437 94.945656,79.393478 
	C93.525604,79.083191 91.102814,80.825134 90.019661,82.278526 
	C89.081924,83.536797 89.389847,85.723412 89.148277,88.346992 
z"/>
<path fill="#FCC924" opacity="1.000000" stroke="none" 
	d="
M45.798874,10.940619 
	C53.696220,16.521965 53.222038,25.391003 49.457935,30.397982 
	C45.249535,35.995964 37.245773,37.708908 31.217398,33.995853 
	C25.077919,30.214365 22.981646,21.965441 26.545444,15.611501 
	C30.384840,8.766194 37.781403,6.862000 45.798874,10.940619 
z"/>
<path fill="#F6B829" opacity="1.000000" stroke="none" 
	d="
M43.408524,63.396133 
	C49.763401,67.087753 51.685848,72.401833 48.817974,77.619423 
	C45.943901,82.848289 38.860725,85.053802 33.188808,82.458443 
	C29.171680,80.620285 27.077377,77.547028 27.017529,73.047493 
	C26.956253,68.440628 28.540714,64.937737 33.366119,63.060524 
	C33.780579,65.592117 33.397964,68.363968 34.125813,70.804665 
	C34.616684,72.450729 36.756924,74.817871 38.011341,74.730774 
	C39.765736,74.608971 42.164337,72.828323 42.861664,71.161118 
	C43.752426,69.031410 43.222614,66.307549 43.408524,63.396133 
z"/>
<path fill="#F6B829" opacity="1.000000" stroke="none" 
	d="
M33.716808,47.741249 
	C33.473110,47.952187 33.235104,47.895355 32.647316,47.723404 
	C32.772526,47.563351 33.247513,47.518417 33.716808,47.741249 
z"/>
<path fill="#3D3A32" opacity="1.000000" stroke="none" 
	d="
M71.553024,87.923737 
	C71.233124,90.111221 71.463791,92.371704 70.443405,93.531891 
	C69.370659,94.751602 66.357178,95.943481 65.510071,95.329285 
	C63.803619,94.092003 62.197453,91.701057 61.989990,89.641052 
	C61.647518,86.240448 60.428871,81.922829 64.882614,79.979736 
	C67.799088,78.707336 70.155907,80.109612 71.183281,83.060463 
	C71.657494,84.422493 71.451256,86.021431 71.553024,87.923737 
z"/>
<path fill="#3A3932" opacity="1.000000" stroke="none" 
	d="
M89.147720,87.923340 
	C89.389847,85.723412 89.081924,83.536797 90.019661,82.278526 
	C91.102814,80.825134 93.525604,79.083191 94.945656,79.393478 
	C100.693481,80.649437 98.928253,85.656952 99.145554,89.536240 
	C99.329361,92.817436 97.755753,95.207344 94.376030,95.213615 
	C90.014595,95.221695 89.144478,91.977859 89.147720,87.923340 
z"/>
</svg>